<svg width="63" height="53" viewBox="0 0 63 53" fill="none" xmlns="http://www.w3.org/2000/svg">
<path d="M54.4166 39.5137C54.737 39.1933 55.1177 39.0331 55.5588 39.0331C55.9999 39.0331 56.3806 39.1933 56.701 39.5137L61.9479 44.7804C62.2683 45.1161 62.4285 45.5089 62.4285 45.9588C62.4285 46.4087 62.2683 46.7927 61.9479 47.1109C61.6276 47.4291 61.2435 47.5893 60.7959 47.5915C60.3482 47.5937 59.9554 47.4335 59.6174 47.1109L54.3508 41.8607C54.0304 41.5403 53.8812 41.1497 53.9031 40.6888C53.9251 40.228 54.0984 39.8363 54.4166 39.5137ZM56.6944 1.29417C57.0148 1.62334 57.175 2.01504 57.175 2.46929C57.175 2.92354 57.0148 3.30977 56.6944 3.62796L51.4442 8.88146C51.1239 9.20185 50.7431 9.36204 50.302 9.36204C49.8609 9.36204 49.4802 9.19746 49.1598 8.86829C48.8394 8.53913 48.6792 8.14742 48.6792 7.69317C48.6792 7.23892 48.8394 6.8516 49.1598 6.53121L54.3639 1.28429C54.6997 0.963906 55.0914 0.803711 55.5391 0.803711C55.9867 0.803711 56.3708 0.968295 56.6912 1.29746M6.31878 1.34354C6.64795 1.02316 7.03966 0.862961 7.49391 0.862961C7.94816 0.862961 8.33438 1.02316 8.65257 1.34354L13.9028 6.54438C14.2232 6.88232 14.3834 7.27513 14.3834 7.72279C14.3834 8.17046 14.2188 8.55449 13.8896 8.87488C13.5604 9.19527 13.1687 9.35546 12.7145 9.35546C12.2602 9.35546 11.8729 9.19527 11.5525 8.87488L6.30562 3.63125C5.98523 3.30867 5.82503 2.92684 5.82503 2.48575C5.82503 2.04467 5.98962 1.66393 6.31878 1.34354ZM8.58345 39.5795C8.90384 39.8999 9.06403 40.2807 9.06403 40.7218C9.06403 41.1628 8.90384 41.5436 8.58345 41.864L3.33653 47.1109C3.01614 47.4313 2.63541 47.5915 2.19432 47.5915C1.75324 47.5915 1.37251 47.4269 1.05212 47.0977C0.731727 46.7685 0.571533 46.3768 0.571533 45.9226C0.571533 45.4683 0.731727 45.081 1.05212 44.7606L6.25295 39.5137C6.57553 39.1933 6.96395 39.043 7.4182 39.0627C7.87464 39.0847 8.26306 39.2559 8.58345 39.5762M18.2182 47.8647L31.5 39.8988L44.8445 48.0095L41.3684 32.9337L53.0341 22.8776L37.6653 21.4951L31.5 7.25867L25.3973 21.4063L10.0285 22.7295L21.6942 32.9271L18.2182 47.8647ZM31.5 43.839L16.6382 52.7594C16.287 52.9327 15.9623 53.003 15.6638 52.97C15.3632 52.9349 15.0713 52.8318 14.7882 52.6606C14.5052 52.4851 14.2901 52.2371 14.1431 51.9167C13.996 51.5919 13.9829 51.2419 14.1036 50.8667L18.0437 34.1746L4.93299 22.8381C4.63674 22.5814 4.45241 22.2895 4.37999 21.9625C4.30538 21.6334 4.3361 21.3152 4.47216 21.008C4.60821 20.7007 4.78816 20.4473 5.01199 20.2476C5.23582 20.0479 5.54524 19.9195 5.94024 19.8625L23.1688 18.401L29.9102 2.54829C30.0594 2.18621 30.2744 1.92507 30.5553 1.76488C30.8362 1.60468 31.1511 1.52568 31.5 1.52788C31.8489 1.53007 32.1649 1.61017 32.448 1.76817C32.7311 1.92617 32.9451 2.18731 33.0899 2.55159L39.8938 18.4043L57.1257 19.8658C57.5272 19.9228 57.8432 20.0501 58.0737 20.2476C58.3041 20.4451 58.4774 20.6996 58.5937 21.0113C58.7276 21.3185 58.7583 21.6367 58.6859 21.9658C58.6113 22.2928 58.4259 22.5847 58.1296 22.8414L45.0222 34.1779L48.959 50.9325C49.0819 51.3078 49.0688 51.6468 48.9195 51.9496C48.7703 52.2525 48.5553 52.4906 48.2744 52.6639C47.9913 52.8351 47.7005 52.9371 47.4021 52.97C47.1014 53.0051 46.7756 52.936 46.4244 52.7627L31.5 43.839Z" fill="black"/>
</svg>
